<?xml version="1.0" standalone="no"?>
<!DOCTYPE svg PUBLIC "-//W3C//DTD SVG 20010904//EN"
 "http://www.w3.org/TR/2001/REC-SVG-20010904/DTD/svg10.dtd">
<svg version="1.0" xmlns="http://www.w3.org/2000/svg"
 width="139.000000pt" height="128.000000pt" viewBox="0 0 139.000000 128.000000"
 preserveAspectRatio="xMidYMid meet">
<metadata>
Created by potrace 1.11, written by Peter Selinger 2001-2013
</metadata>
<g transform="translate(0.000000,128.000000) scale(0.100000,-0.100000)"
fill="#000000" stroke="none">
<path d="M485 1255 c-16 -8 -37 -20 -46 -27 -26 -21 -69 -89 -69 -108 0 -10
-17 -28 -37 -40 -32 -19 -42 -20 -80 -10 -54 13 -67 6 -59 -33 16 -78 90 -137
172 -137 33 0 43 -5 54 -24 12 -23 9 -29 -33 -83 -61 -77 -87 -136 -87 -198 0
-87 42 -153 125 -198 37 -21 54 -22 255 -22 208 0 217 1 260 24 73 39 107 69
150 133 38 57 71 147 85 231 l6 38 -32 -17 c-44 -22 -100 -19 -188 11 -41 13
-113 30 -160 35 -47 6 -87 12 -88 14 -2 2 12 15 31 29 129 99 84 343 -71 386
-53 15 -152 13 -188 -4z"/>
<path d="M35 274 c-63 -68 -31 -196 50 -204 54 -6 75 0 75 20 0 16 -6 19 -37
18 -44 -2 -73 28 -73 76 0 50 24 76 71 76 32 0 39 3 39 20 0 17 -7 20 -50 20
-42 0 -55 -5 -75 -26z"/>
<path d="M460 270 c0 -26 -3 -30 -29 -30 -43 0 -71 -28 -78 -77 -10 -72 36
-116 91 -87 14 7 26 9 26 3 0 -5 7 -9 15 -9 12 0 15 19 15 115 0 108 -1 115
-20 115 -16 0 -20 -7 -20 -30z"/>
<path d="M717 282 c-36 -40 -18 -81 51 -116 33 -17 43 -50 18 -59 -8 -3 -31
-3 -50 0 -31 5 -36 3 -36 -14 0 -15 9 -22 34 -26 49 -8 89 5 105 34 23 41 7
76 -44 101 -29 14 -45 29 -45 40 0 19 6 21 58 18 28 -1 33 2 30 17 -5 27 -97
31 -121 5z"/>
<path d="M880 185 c0 -108 1 -115 20 -115 18 0 20 7 20 54 0 56 17 83 45 72
11 -4 15 -21 15 -66 0 -53 2 -60 20 -60 18 0 20 7 20 75 0 71 -2 76 -25 87
-19 8 -31 8 -50 0 -24 -11 -25 -11 -25 28 0 33 -3 40 -20 40 -19 0 -20 -7 -20
-115z"/>
<path d="M213 230 c-32 -13 -50 -78 -32 -116 45 -93 164 -43 145 61 -11 54
-57 77 -113 55z"/>
<path d="M555 215 c-30 -30 -34 -92 -7 -124 18 -23 59 -30 99 -17 34 11 18 37
-18 29 -28 -5 -59 9 -59 28 0 5 23 9 50 9 l50 0 0 34 c0 63 -69 87 -115 41z"/>
<path d="M1083 225 c-48 -34 -37 -138 16 -152 77 -20 126 35 100 114 -16 50
-73 68 -116 38z"/>
<path d="M1291 231 c-7 -5 -22 -6 -32 -4 -18 5 -19 -2 -19 -111 0 -109 1 -116
20 -116 16 0 20 7 20 33 0 31 2 34 32 34 44 0 68 32 68 93 0 65 -43 100 -89
71z"/>
</g>
</svg>
