<?xml version="1.0" encoding="UTF-8" standalone="yes"?>
<!-- Created with sK1/UniConvertor (http://sk1project.org/) -->
<svg xmlns="http://www.w3.org/2000/svg" xmlns:xlink="http://www.w3.org/1999/xlink"
  width="595.276pt" height="841.89pt" viewBox="0 0 595.276 841.89"
  fill-rule="evenodd">
<g>
<path style="stroke:none; fill:none" d="M 15.6979 830.37C 15.1916 830.678 14.5976 830.931 13.9159 831.129C 13.2338 831.327 12.3979 831.426 11.4079 831.426C 10.3519 831.426 9.4223 831.233 8.6194 830.847C 7.8161 830.461 7.1453 829.921 6.6064 829.227C 6.0671 828.533 5.6659 827.695 5.4019 826.714C 5.1379 825.733 5.0059 824.647 5.0059 823.456C 5.0059 820.723 5.5613 818.706 6.6724 817.405C 7.7831 816.104 9.2516 815.454 11.0779 815.454C 12.0679 815.454 12.9094 815.509 13.6024 815.619C 14.2954 815.729 14.8946 815.905 15.4009 816.147L 16.2919 812.319C 15.6979 812.077 14.9441 811.868 14.0314 811.692C 13.1183 811.516 12.0019 811.428 10.6819 811.428C 9.4496 811.428 8.2178 811.631 6.9859 812.038C 5.7536 812.446 4.6373 813.116 3.6364 814.051C 2.6351 814.987 1.8214 816.218 1.1944 817.747C 0.5674 819.277 0.2539 821.174 0.2539 823.44C 0.2539 825.618 0.5344 827.471 1.0954 829C 1.6564 830.53 2.4098 831.772 3.3559 832.729C 4.3016 833.686 5.3963 834.379 6.6394 834.808C 7.8821 835.237 9.1969 835.452 10.5829 835.452C 11.7266 835.452 12.8434 835.342 13.9324 835.124C 15.0214 834.906 15.9176 834.546 16.6219 834.044L 15.6979 830.37z"/>
<path style="stroke:none; fill:none" d="M 17.8263 830.304C 18.1449 831.382 18.6291 832.3 19.2783 833.059C 19.9269 833.818 20.7354 834.407 21.7038 834.825C 22.6716 835.242 23.8158 835.452 25.1358 835.452C 27.5994 835.452 29.5083 834.698 30.8613 833.191C 32.2143 831.685 32.8908 829.534 32.8908 826.74C 32.8908 825.442 32.7309 824.254 32.4123 823.176C 32.0931 822.098 31.6146 821.179 30.9768 820.42C 30.3384 819.661 29.5356 819.073 28.5678 818.655C 27.5994 818.237 26.4558 818.028 25.1358 818.028C 22.6716 818.028 20.7576 818.782 19.3938 820.288C 18.0294 821.795 17.3478 823.946 17.3478 826.74C 17.3478 828.038 17.5071 829.226 17.8263 830.304z"/>
<path style="stroke:none; fill:none" d="M 22.6608 822.846C 23.2548 822.054 24.0798 821.658 25.1358 821.658C 26.3454 821.658 27.2034 822.125 27.7098 823.06C 28.2156 823.996 28.4688 825.222 28.4688 826.74C 28.4688 828.5 28.1934 829.787 27.6438 830.601C 27.0936 831.415 26.2578 831.822 25.1358 831.822C 24.5418 831.822 24.0303 831.695 23.6013 831.442C 23.1723 831.19 22.8258 830.832 22.5618 830.37C 22.2978 829.908 22.0998 829.369 21.9678 828.753C 21.8358 828.137 21.7698 827.466 21.7698 826.74C 21.7698 824.936 22.0668 823.638 22.6608 822.846z"/>
<path style="stroke:none; fill:none" d="M 49.8854 811.89L 45.5954 811.89L 45.5954 818.589C 45.155 818.413 44.7152 818.287 44.2754 818.209C 43.835 818.132 43.274 818.094 42.5924 818.094C 40.1282 818.094 38.258 818.875 36.9824 820.437C 35.7062 821.999 35.0684 824.188 35.0684 827.004C 35.0684 829.908 35.6402 832.042 36.7844 833.406C 37.928 834.77 39.5342 835.452 41.6024 835.452C 42.7244 835.452 43.6979 835.215 44.5229 834.742C 45.3479 834.269 45.98 833.648 46.4204 832.878L 46.5523 832.878L 47.1464 835.023L 50.2154 835.023C 50.039 833.901 49.94 832.878 49.9183 831.954C 49.8962 831.03 49.8854 830.106 49.8854 829.182L 49.8854 811.89z"/>
<path style="stroke:none; fill:none" d="M 40.2329 830.535C 39.7378 829.677 39.4904 828.544 39.4904 827.136C 39.4904 825.156 39.7925 823.759 40.3979 822.945C 41.0027 822.131 41.9102 821.724 43.1204 821.724C 43.7144 821.724 44.198 821.785 44.5724 821.905C 44.9462 822.026 45.287 822.208 45.5954 822.45L 45.5954 829.446C 45.3973 830.216 45.056 830.804 44.5724 831.211C 44.0882 831.619 43.4282 831.822 42.5924 831.822C 41.5142 831.822 40.7279 831.393 40.2329 830.535z"/>
<path style="stroke:none; fill:none" d="M 65.4325 830.766C 65.0597 831.052 64.5173 831.332 63.8047 831.607C 63.0921 831.883 62.2862 832.02 61.3875 832.02C 59.9406 832.02 58.8934 831.668 58.2468 830.964C 57.5997 830.26 57.2434 829.215 57.1779 827.829L 67.0459 827.829C 67.1552 827.257 67.2377 826.707 67.2924 826.179C 67.3471 825.651 67.3749 825.156 67.3749 824.694C 67.3749 823.418 67.1877 822.351 66.8139 821.493C 66.4396 820.635 65.9446 819.953 65.3289 819.447C 64.7127 818.941 64.0089 818.578 63.2169 818.358C 62.4249 818.138 61.6107 818.028 60.7749 818.028C 58.2669 818.028 56.3199 818.754 54.9339 820.206C 53.5479 821.658 52.8549 823.836 52.8549 826.74C 52.8549 829.446 53.4705 831.574 54.7029 833.125C 55.9347 834.676 57.8817 835.452 60.5439 835.452C 61.8196 835.452 63.0241 835.27 64.1574 834.907C 65.2902 834.544 66.1869 834.099 66.8469 833.571L 65.4325 830.766z"/>
<path style="stroke:none; fill:none" d="M 62.8405 822.417C 63.2891 823.055 63.4696 823.968 63.3819 825.156L 57.2769 825.156C 57.3862 824.034 57.7085 823.138 58.2447 822.466C 58.781 821.795 59.607 821.46 60.7233 821.46C 61.686 821.46 62.3919 821.779 62.8405 822.417z"/>
<path style="stroke:none; fill:none" d="M 79.4033 830.848C 78.6881 831.299 77.6594 831.525 76.3178 831.525C 75.7454 831.525 75.1901 831.481 74.6513 831.393C 74.1119 831.305 73.6004 831.195 73.1168 831.063C 72.6326 830.931 72.1979 830.788 71.8133 830.634C 71.4281 830.48 71.1146 830.337 70.8728 830.205L 69.4208 834.066C 70.0148 834.374 70.9387 834.682 72.1928 834.99C 73.4468 835.298 74.8988 835.452 76.5487 835.452C 77.8028 835.452 78.9521 835.308 79.9972 835.023C 81.0419 834.737 81.9329 834.297 82.6703 833.703C 83.4071 833.109 83.9789 832.366 84.3863 831.475C 84.7931 830.584 84.9967 829.523 84.9967 828.291C 84.9967 827.059 84.7379 826.03 84.2212 825.205C 83.7041 824.38 83.0549 823.687 82.2743 823.126C 81.4931 822.565 80.6459 822.087 79.7333 821.691C 78.8201 821.295 77.9729 820.91 77.1923 820.536C 76.4111 820.162 75.7619 819.755 75.2453 819.315C 74.7281 818.875 74.4698 818.325 74.4698 817.665C 74.4698 816.961 74.7503 816.4 75.3113 815.982C 75.8722 815.564 76.6808 815.355 77.7368 815.355C 78.8588 815.355 79.9034 815.482 80.8718 815.734C 81.8396 815.987 82.5656 816.268 83.0498 816.576L 84.4688 812.781C 83.6984 812.341 82.7198 812.005 81.5317 811.774C 80.3438 811.543 79.0784 811.428 77.7368 811.428C 76.5704 811.428 75.5144 811.56 74.5688 811.824C 73.6226 812.088 72.8032 812.495 72.1103 813.045C 71.4172 813.595 70.8836 814.282 70.5098 815.107C 70.1354 815.932 69.9488 816.906 69.9488 818.028C 69.9488 819.326 70.2071 820.393 70.7243 821.229C 71.2409 822.065 71.8901 822.763 72.6713 823.324C 73.4519 823.885 74.2991 824.359 75.2123 824.743C 76.1249 825.128 76.9721 825.502 77.7533 825.865C 78.5339 826.228 79.1831 826.63 79.7003 827.07C 80.2169 827.51 80.4757 828.082 80.4757 828.786C 80.4757 829.71 80.1179 830.398 79.4033 830.848z"/>
<path style="stroke:none; fill:none" d="M 102.289 834.99L 102.289 824.727C 102.289 823.451 102.184 822.379 101.975 821.509C 101.766 820.64 101.447 819.953 101.018 819.447C 100.589 818.941 100.055 818.578 99.4177 818.358C 98.7794 818.138 98.0425 818.028 97.2067 818.028C 96.0187 818.028 95.0395 818.237 94.2697 818.655C 93.4994 819.073 92.8507 819.634 92.3227 820.338L 92.1907 820.338L 92.1907 811.89L 87.9007 811.89L 87.9007 834.99L 92.1907 834.99L 92.1907 824.463C 92.3887 823.693 92.7899 823.06 93.3952 822.565C 94 822.07 94.6657 821.823 95.3917 821.823C 96.3817 821.823 97.0634 822.12 97.4377 822.714C 97.8115 823.308 97.9987 824.276 97.9987 825.618L 97.9987 834.99L 102.289 834.99z"/>
<path style="stroke:none; fill:none" d="M 105.572 830.304C 105.891 831.382 106.375 832.3 107.024 833.059C 107.673 833.818 108.481 834.407 109.45 834.825C 110.418 835.242 111.562 835.452 112.882 835.452C 115.345 835.452 117.254 834.698 118.607 833.191C 119.96 831.685 120.637 829.534 120.637 826.74C 120.637 825.442 120.477 824.254 120.158 823.176C 119.839 822.098 119.36 821.179 118.723 820.42C 118.084 819.661 117.282 819.073 116.314 818.655C 115.345 818.237 114.202 818.028 112.882 818.028C 110.418 818.028 108.504 818.782 107.14 820.288C 105.775 821.795 105.094 823.946 105.094 826.74C 105.094 828.038 105.253 829.226 105.572 830.304z"/>
<path style="stroke:none; fill:none" d="M 110.407 822.846C 111.001 822.054 111.826 821.658 112.882 821.658C 114.091 821.658 114.949 822.125 115.456 823.06C 115.962 823.996 116.215 825.222 116.215 826.74C 116.215 828.5 115.939 829.787 115.39 830.601C 114.84 831.415 114.004 831.822 112.882 831.822C 112.288 831.822 111.776 831.695 111.347 831.442C 110.918 831.19 110.572 830.832 110.308 830.37C 110.044 829.908 109.846 829.369 109.714 828.753C 109.582 828.137 109.516 827.466 109.516 826.74C 109.516 824.936 109.813 823.638 110.407 822.846z"/>
<path style="stroke:none; fill:none" d="M 123.606 841.59L 127.896 841.59L 127.896 834.825C 128.336 835.044 128.776 835.204 129.216 835.303C 129.656 835.402 130.217 835.452 130.899 835.452C 132.109 835.452 133.181 835.242 134.117 834.825C 135.052 834.407 135.844 833.802 136.493 833.01C 137.141 832.218 137.631 831.256 137.961 830.122C 138.291 828.989 138.456 827.719 138.456 826.311C 138.456 823.407 137.939 821.3 136.905 819.991C 135.871 818.683 134.32 818.028 132.252 818.028C 131.13 818.028 130.178 818.226 129.398 818.622C 128.617 819.018 127.94 819.634 127.368 820.47L 127.236 820.47L 126.741 818.49L 123.606 818.49L 123.606 841.59z"/>
<path style="stroke:none; fill:none" d="M 133.308 822.846C 133.792 823.638 134.034 824.76 134.034 826.212C 134.034 828.214 133.726 829.649 133.11 830.518C 132.494 831.388 131.57 831.822 130.338 831.822C 129.744 831.822 129.266 831.751 128.903 831.607C 128.54 831.464 128.204 831.272 127.896 831.03L 127.896 824.166C 128.16 823.33 128.528 822.703 129.002 822.285C 129.475 821.867 130.129 821.658 130.965 821.658C 132.043 821.658 132.824 822.054 133.308 822.846z"/>
</g>
</svg>